# xmcd
#
# Track frame offsets:
#	150
#	17760
#	34710
#	53625
#	74720
#	90794
#	111698
#	125993
#	144826
#	160841
#	179487
#	195441
#	213224
#	229578
#	248888
#
# Disc length: 3527 seconds
#
# Revision: 0
# Processed by: cddbd v1.5.2PL0 Copyright (c) Steve Scherf et al.
# Submitted via: EasyCDDAExtractor 15.3.0.1
#
DISCID=cf0dc50f
DTITLE=Paulina Rubio - Celebridades
DYEAR=2008
DGENRE=Latin
TTITLE0=Amor De Mujer
TTITLE1=Mio
TTITLE2=Te Daria Mi Vida
TTITLE3=Siempre Tuya Desde La Raiz
TTITLE4=Nieva, Nieva
TTITLE5=Sangre Latina
TTITLE6=La Chica Dorada
TTITLE7=El Me Engaño
TTITLE8=Sabor A Miel
TTITLE9=El Primer Amor
TTITLE10=Nada De Ti
TTITLE11=Hoy Te Deje De Amar
TTITLE12=Pobre Niña Rica
TTITLE13=Solo Por Ti
TTITLE14=Enamorada
EXTD=
EXTT0=
EXTT1=
EXTT2=
EXTT3=
EXTT4=
EXTT5=
EXTT6=
EXTT7=
EXTT8=
EXTT9=
EXTT10=
EXTT11=
EXTT12=
EXTT13=
EXTT14=
PLAYORDER=
